<?xml version="1.0" encoding="UTF-8"?>
<svg width="176px" height="155px" viewBox="0 0 176 155" version="1.1" xmlns="http://www.w3.org/2000/svg" xmlns:xlink="http://www.w3.org/1999/xlink">
    <!-- Generator: Sketch 51.1 (57501) - http://www.bohemiancoding.com/sketch -->
    <title>逾期</title>
    <desc>Created with Sketch.</desc>
    <defs></defs>
    <g id="Page-1" stroke="none" stroke-width="1" fill="none" fill-rule="evenodd" opacity="0.3">
        <g id="我的质押借款---审核中" transform="translate(-537.000000, -156.000000)" fill="#4A90E2">
            <g id="逾期" transform="translate(30.000000, 156.000000)">
                <g transform="translate(507.000000, -10.963046)">
                    <path d="M117.216356,106.020106 C107.589237,116.487648 94.3997369,120.701117 81.8705803,118.679408 L77.1439082,121.645841 C91.9147586,125.632576 108.214826,121.343529 119.753467,108.797595 C125.331635,102.732467 129.137302,95.4580919 131.187843,87.7491441 L126.478548,90.696683 C124.445384,96.3083435 121.352194,101.52322 117.216356,106.020106 Z M99.6998656,128.693482 L96.0158417,129.128055 L97.8578537,132.510167 L96.9020927,136.459113 L100.533984,135.419917 L103.644552,137.422731 L104.044233,133.417102 L106.911516,130.734086 L103.540287,129.298105 L102.219599,125.632576 L99.6998656,128.693482 Z M140.62381,96.2327655 L144.186191,95.5336698 L142.048762,92.2082414 L142.587464,88.1270337 L139.164102,89.4307528 L135.931893,87.5979883 L135.94927,91.7358794 L133.394782,94.6834182 L136.818144,95.9304539 L138.469003,99.5959829 L140.62381,96.2327655 Z M124.532272,121.475791 L128.112031,121.985941 L127.01725,118.112573 L128.66811,114.409255 L125.053596,114.522622 L122.499108,111.726239 L121.369572,115.656291 L118.137362,117.640211 L121.0394,119.945338 L121.595479,123.969862 L124.532272,121.475791 Z M80.1675881,135.060922 L83.8863669,134.324037 L81.6620507,131.225342 L82.2007523,127.333079 L78.6209932,128.636798 L75.2323864,126.95519 L75.2497638,130.866347 L72.5910108,133.719413 L76.1881473,134.834188 L77.9258944,138.272983 L80.1675881,135.060922 Z M32.3447879,145.282835 L172.407204,57.3479261 C175.830566,55.1939554 177.029612,50.3947576 175.031203,46.6725451 L153.465761,6.08720248 C151.484729,2.36498996 147.070852,1.06127085 143.64749,3.23413603 L3.58507331,91.169045 C0.161711513,93.3041212 -1.01995652,98.0844246 0.961075181,101.825532 L22.5265167,142.429769 C24.5075484,146.170876 28.9040486,147.4557 32.3447879,145.282835 Z M24.7334556,138.76424 L4.95789352,101.542114 C3.48080848,98.7457314 4.3670595,95.1557802 6.93892522,93.5308549 L143.873397,7.59876086 C146.445263,5.99273008 149.746982,6.95634855 151.241445,9.75273155 L171.017007,46.9748567 C172.494092,49.7712397 171.607841,53.3611909 169.035975,54.9861162 L32.0667483,140.955999 C29.5296376,142.543136 26.2279181,141.579517 24.7334556,138.76424 Z M133.759709,124.007651 C112.593949,147.021127 80.3934953,150.762234 55.6479765,135.193183 L52.085595,137.441626 C78.4124636,155.145754 113.445445,151.593591 136.279442,126.766245 C150.146664,111.68845 156.784858,91.7736683 156.263534,72.0289369 L152.71853,74.27738 C152.701152,92.2649248 146.39313,110.25247 133.759709,124.007651 Z M49.5311067,57.7824992 C51.5468934,52.2086276 54.6227057,46.9748567 58.7585438,42.4590761 C68.3856628,31.9915343 81.5751633,27.7780653 94.1043199,29.7997746 L98.830992,26.8333413 C84.0601417,22.846606 67.7600738,27.135653 56.2214331,39.6815875 C50.6432649,45.7467156 46.8375987,53.0210903 44.7870571,60.730038 L49.5311067,57.7824992 Z M71.5136076,22.412033 L75.180254,21.9963545 L73.338242,18.6142426 L74.259248,14.7030853 L70.6621115,15.7044927 L67.5515442,13.7016778 L67.1692398,17.6884131 L64.3193346,20.3714292 L67.6905639,21.8074097 L69.0112517,25.4729387 L71.5136076,22.412033 Z M48.1061541,30.838971 L44.5437725,30.3099256 L45.6385532,34.145505 L43.9876935,37.8299285 L47.6022074,37.7543506 L50.1393182,40.5507336 L51.2514763,36.6395763 L54.4663085,34.6934449 L51.5642708,32.3883183 L51.0081918,28.3637941 L48.1061541,30.838971 Z M96.1896164,13.3048938 L92.4534602,13.7394668 L94.4692468,17.0082118 L93.6698831,20.8437912 L97.3191521,19.8234893 L100.551362,21.7507262 L100.777269,17.8395689 L103.592419,15.1943417 L100.099547,13.8150447 L98.5877074,10.2628825 L96.1896164,13.3048938 Z M42.2499464,24.5093203 C63.4157061,1.47694941 95.5987824,-2.24526311 120.361679,13.3048938 L123.92406,11.0564507 C97.5971916,-6.6476769 62.56421,-3.0955147 39.7302131,21.7507262 C25.8629912,36.8285211 19.2247972,56.7433028 19.7461214,76.4880342 L23.3085029,74.2395911 C23.2911255,56.2520463 29.6165249,38.2456071 42.2499464,24.5093203 Z M33.1962839,54.6271211 L29.6512799,55.3073223 L31.7713313,58.5949618 L31.2326297,62.6383805 L34.6559915,61.3535559 L37.8882011,63.1863204 L37.8534462,59.1051128 L40.390557,56.1953629 L36.9671952,54.9672217 L35.2989579,51.3394816 L33.1962839,54.6271211 Z" id="Shape" fill-rule="nonzero"></path>
                    <text id="审核中" transform="translate(88.000000, 74.249720) rotate(-30.000000) translate(-88.000000, -74.249720) " font-family=".PingFangSC-Regular, .PingFang SC" font-size="28" font-weight="normal" line-spacing="75">
                        <tspan x="46" y="60.74972">审核</tspan>
                        <tspan x="46" y="135.74972">中</tspan>
                    </text>
                </g>
            </g>
        </g>
    </g>
</svg>