<?xml version="1.0" encoding="UTF-8"?>
<svg width="176px" height="124px" viewBox="0 0 176 124" version="1.1" xmlns="http://www.w3.org/2000/svg" xmlns:xlink="http://www.w3.org/1999/xlink">
    <!-- Generator: Sketch 51.1 (57501) - http://www.bohemiancoding.com/sketch -->
    <title>逾期</title>
    <desc>Created with Sketch.</desc>
    <defs></defs>
    <g id="Page-1" stroke="none" stroke-width="1" fill="none" fill-rule="evenodd" opacity="0.3">
        <g id="我的质押借款---已完成" transform="translate(-537.000000, -156.000000)" fill="#756BFF">
            <g id="逾期" transform="translate(30.000000, 156.000000)">
                <g transform="translate(507.000000, -13.000000)">
                    <path d="M117.216356,97.8101636 C107.589237,107.467124 94.3997369,111.354312 81.8705803,109.489159 L77.1439082,112.225879 C91.9147586,115.903891 108.214826,111.946978 119.753467,100.37257 C125.331635,94.777111 129.137302,88.0660464 131.187843,80.9540611 L126.478548,83.6733496 C124.445384,88.8504566 121.352194,93.6615055 117.216356,97.8101636 Z M99.6998656,118.727768 L96.0158417,119.128688 L97.8578537,122.248898 L96.9020927,125.892047 L100.533984,124.933323 L103.644552,126.781045 L104.044233,123.085602 L106.911516,120.610352 L103.540287,119.28557 L102.219599,115.903891 L99.6998656,118.727768 Z M140.62381,88.7807312 L144.186191,88.1357718 L142.048762,85.0678565 L142.587464,81.3026878 L139.164102,82.50545 L135.931893,80.8146104 L135.94927,84.6320731 L133.394782,87.3513616 L136.818144,88.5018299 L138.469003,91.8835092 L140.62381,88.7807312 Z M124.532272,112.068997 L128.112031,112.539643 L127.01725,108.966219 L128.66811,105.549677 L125.053596,105.654265 L122.499108,103.074427 L121.369572,106.700145 L118.137362,108.530436 L121.0394,110.657059 L121.595479,114.369933 L124.532272,112.068997 Z M80.1675881,124.602128 L83.8863669,123.922306 L81.6620507,121.063567 L82.2007523,117.472711 L78.6209932,118.675474 L75.2323864,117.124085 L75.2497638,120.732371 L72.5910108,123.364503 L76.1881473,124.392952 L77.9258944,127.565455 L80.1675881,124.602128 Z M32.3447879,134.032481 L172.407204,52.9070404 C175.830566,50.9198681 177.029612,46.4923086 175.031203,43.0583352 L153.465761,5.61582413 C151.484729,2.18185081 147.070852,0.979088585 143.64749,2.9836923 L3.58507331,84.109133 C0.161711513,86.0788741 -1.01995652,90.4890022 0.961075181,93.9404069 L22.5265167,131.400349 C24.5075484,134.851754 28.9040486,136.037085 32.3447879,134.032481 Z M24.7334556,128.01867 L4.95789352,93.6789368 C3.48080848,91.099099 4.3670595,87.7871451 6.93892522,86.2880501 L143.873397,7.01033106 C146.445263,5.52866745 149.746982,6.41766562 151.241445,8.99750344 L171.017007,43.3372366 C172.494092,45.9170744 171.607841,49.2290284 169.035975,50.7281234 L32.0667483,130.040705 C29.5296376,131.504937 26.2279181,130.615939 24.7334556,128.01867 Z M133.759709,114.404796 C112.593949,135.636164 80.3934953,139.087569 55.6479765,124.724147 L52.085595,126.798476 C78.4124636,143.131639 113.445445,139.854548 136.279442,116.949771 C150.146664,103.039565 156.784858,84.6669358 156.263534,66.451189 L152.71853,68.5255181 C152.701152,85.1201505 146.39313,101.714783 133.759709,114.404796 Z M49.5311067,53.3079612 C51.5468934,48.1657169 54.6227057,43.3372366 58.7585438,39.1711472 C68.3856628,29.5141867 81.5751633,25.6269986 94.1043199,27.4921516 L98.830992,24.7554318 C84.0601417,21.0774197 67.7600738,25.0343331 56.2214331,36.6087407 C50.6432649,42.2041997 46.8375987,48.9152643 44.7870571,56.0272497 L49.5311067,53.3079612 Z M71.5136076,20.676499 L75.180254,20.2930096 L73.338242,17.1728003 L74.259248,13.5645136 L70.6621115,14.4883745 L67.5515442,12.6406528 L67.1692398,16.3186648 L64.3193346,18.7939146 L67.6905639,20.1186962 L69.0112517,23.5003755 L71.5136076,20.676499 Z M48.1061541,28.4508751 L44.5437725,27.9627977 L45.6385532,31.501359 L43.9876935,34.9004697 L47.6022074,34.8307443 L50.1393182,37.4105822 L51.2514763,33.8022955 L54.4663085,32.0068678 L51.5642708,29.8802447 L51.0081918,26.16737 L48.1061541,28.4508751 Z M96.1896164,12.2745947 L92.4534602,12.6755155 L94.4692468,15.6911367 L93.6698831,19.229698 L97.3191521,18.2884059 L100.551362,20.0664022 L100.777269,16.4581155 L103.592419,14.0177284 L100.099547,12.7452408 L98.5877074,9.46814953 L96.1896164,12.2745947 Z M42.2499464,22.6113774 C63.4157061,1.36257799 95.5987824,-2.07139533 120.361679,12.2745947 L123.92406,10.2002657 C97.5971916,-6.13289676 62.56421,-2.85580548 39.7302131,20.0664022 C25.8629912,33.9766088 19.2247972,52.3492377 19.7461214,70.5649845 L23.3085029,68.4906554 C23.2911255,51.8960229 29.6165249,35.2839591 42.2499464,22.6113774 Z M33.1962839,50.396928 L29.6512799,51.0244561 L31.7713313,54.0575087 L31.2326297,57.7878147 L34.6559915,56.6024838 L37.8882011,58.2933235 L37.8534462,54.5281547 L40.390557,51.8437289 L36.9671952,50.710692 L35.2989579,47.3638754 L33.1962839,50.396928 Z" id="Shape" fill-rule="nonzero"></path>
                    <text id="已完成" transform="translate(88.123067, 68.475953) rotate(-30.000000) translate(-88.123067, -68.475953) " font-family=".PingFangSC-Regular, .PingFang SC" font-size="28" font-weight="normal" line-spacing="75">
                        <tspan x="46.123067" y="54.9759526">已完成</tspan>
                    </text>
                </g>
            </g>
        </g>
    </g>
</svg>