<?xml version="1.0" encoding="UTF-8"?>
<svg width="176px" height="160px" viewBox="0 0 176 160" version="1.1" xmlns="http://www.w3.org/2000/svg" xmlns:xlink="http://www.w3.org/1999/xlink">
    <!-- Generator: Sketch 51.1 (57501) - http://www.bohemiancoding.com/sketch -->
    <title>逾期</title>
    <desc>Created with Sketch.</desc>
    <defs></defs>
    <g id="Page-1" stroke="none" stroke-width="1" fill="none" fill-rule="evenodd" opacity="0.3">
        <g id="我的质押借款---已逾期" transform="translate(-537.000000, -156.000000)" fill="#EC5B6C">
            <g id="逾期" transform="translate(30.000000, 156.000000)">
                <g transform="translate(507.000000, -10.950783)">
                    <path d="M117.216356,105.901515 C107.589237,116.357348 94.3997369,120.566104 81.8705803,118.546657 L77.1439082,121.509772 C91.9147586,125.492047 108.214826,121.207798 119.753467,108.675897 C125.331635,102.617553 129.137302,95.3513155 131.187843,87.6509907 L126.478548,90.5952325 C124.445384,96.200616 121.352194,101.409659 117.216356,105.901515 Z M99.6998656,128.549529 L96.0158417,128.983616 L97.8578537,132.361945 L96.9020927,136.306474 L100.533984,135.26844 L103.644552,137.269015 L104.044233,133.267866 L106.911516,130.587851 L103.540287,129.153476 L102.219599,125.492047 L99.6998656,128.549529 Z M140.62381,96.1251226 L144.186191,95.4268089 L142.048762,92.1051001 L142.587464,88.0284576 L139.164102,89.3307184 L135.931893,87.500004 L135.94927,91.6332665 L133.394782,94.5775083 L136.818144,95.8231491 L138.469003,99.484578 L140.62381,96.1251226 Z M124.532272,121.339912 L128.112031,121.849492 L127.01725,117.980456 L128.66811,114.281281 L125.053596,114.394521 L122.499108,111.601266 L121.369572,115.526921 L118.137362,117.508623 L121.0394,119.811171 L121.595479,123.831193 L124.532272,121.339912 Z M80.1675881,134.909847 L83.8863669,134.173786 L81.6620507,131.078558 L82.2007523,127.190649 L78.6209932,128.492909 L75.2323864,126.813182 L75.2497638,130.719964 L72.5910108,133.569839 L76.1881473,134.683367 L77.9258944,138.118315 L80.1675881,134.909847 Z M32.3447879,145.120326 L172.407204,57.2837786 C175.830566,55.1322172 177.029612,50.3383876 175.031203,46.6203386 L153.465761,6.08039352 C151.484729,2.36234455 147.070852,1.06008375 143.64749,3.23051843 L3.58507331,91.0670662 C0.161711513,93.1997542 -1.01995652,97.9747104 0.961075181,101.711633 L22.5265167,142.270451 C24.5075484,146.007374 28.9040486,147.290761 32.3447879,145.120326 Z M24.7334556,138.609022 L4.95789352,101.428533 C3.48080848,98.6352775 4.3670595,95.049342 6.93892522,93.4262343 L143.873397,7.59026113 C146.445263,5.9860268 149.746982,6.94856739 151.241445,9.74182246 L171.017007,46.9223122 C172.494092,49.7155672 171.607841,53.3015028 169.035975,54.9246104 L32.0667483,140.79833 C29.5296376,142.383691 26.2279181,141.421151 24.7334556,138.609022 Z M133.759709,123.86894 C112.593949,146.856674 80.3934953,150.593596 55.6479765,135.04196 L52.085595,137.287888 C78.4124636,154.972212 113.445445,151.424024 136.279442,126.624448 C150.146664,111.563519 156.784858,91.6710132 156.263534,71.9483677 L152.71853,74.1942957 C152.701152,92.1617202 146.39313,110.129145 133.759709,123.86894 Z M49.5311067,57.7178655 C51.5468934,52.1502287 54.6227057,46.9223122 58.7585438,42.4115827 C68.3856628,31.9557496 81.5751633,27.7469936 94.1043199,29.7664415 L98.830992,26.8033264 C84.0601417,22.8210506 67.7600738,27.1052999 56.2214331,39.637201 C50.6432649,45.6955447 46.8375987,52.9617826 44.7870571,60.6621073 L49.5311067,57.7178655 Z M71.5136076,22.3869636 L75.180254,21.97175 L73.338242,18.5934213 L74.259248,14.6866389 L70.6621115,15.6869261 L67.5515442,13.6863516 L67.1692398,17.6686274 L64.3193346,20.3486424 L67.6905639,21.7830166 L69.0112517,25.4444455 L71.5136076,22.3869636 Z M48.1061541,30.8044755 L44.5437725,30.2760218 L45.6385532,34.1073109 L43.9876935,37.7876132 L47.6022074,37.7121198 L50.1393182,40.5053748 L51.2514763,36.5985924 L54.4663085,34.6546379 L51.5642708,32.3520898 L51.0081918,28.3320673 L48.1061541,30.8044755 Z M96.1896164,13.2900113 L92.4534602,13.7240983 L94.4692468,16.9891869 L93.6698831,20.820476 L97.3191521,19.8013154 L100.551362,21.7263965 L100.777269,17.8196141 L103.592419,15.1773458 L100.099547,13.7995916 L98.5877074,10.2514028 L96.1896164,13.2900113 Z M42.2499464,24.4819049 C63.4157061,1.47529734 95.5987824,-2.24275163 120.361679,13.2900113 L123.92406,11.0440833 C97.5971916,-6.64024102 62.56421,-3.09205216 39.7302131,21.7263965 C25.8629912,36.7873259 19.2247972,56.6798315 19.7461214,76.4024771 L23.3085029,74.156549 C23.2911255,56.1891246 29.6165249,38.2028268 42.2499464,24.4819049 Z M33.1962839,54.5660169 L29.6512799,55.2454573 L31.7713313,58.5294193 L31.2326297,62.5683152 L34.6559915,61.2849277 L37.8882011,63.1156422 L37.8534462,59.0389997 L40.390557,56.1325045 L36.9671952,54.9057371 L35.2989579,51.2820549 L33.1962839,54.5660169 Z" id="Shape" fill-rule="nonzero"></path>
                    <text id="已逾期" transform="translate(88.000000, 74.166667) rotate(-30.000000) translate(-88.000000, -74.166667) " font-family=".PingFangSC-Regular, .PingFang SC" font-size="28" font-weight="normal" line-spacing="75">
                        <tspan x="46" y="60.6666667">已逾</tspan>
                        <tspan x="46" y="135.666667">期</tspan>
                    </text>
                </g>
            </g>
        </g>
    </g>
</svg>