<?xml version="1.0" encoding="UTF-8"?>
<svg width="200px" height="200px" viewBox="0 0 200 200" version="1.1" xmlns="http://www.w3.org/2000/svg" xmlns:xlink="http://www.w3.org/1999/xlink">
    <!-- Generator: Sketch 51.1 (57501) - http://www.bohemiancoding.com/sketch -->
    <title>打勾</title>
    <desc>Created with Sketch.</desc>
    <defs></defs>
    <g id="Page-1" stroke="none" stroke-width="1" fill="none" fill-rule="evenodd">
        <g id="首页-质押借款-提交审核" transform="translate(-275.000000, -232.000000)" fill="#50E3C2" fill-rule="nonzero">
            <g id="打勾" transform="translate(275.000000, 232.000000)">
                <path d="M100,0 C44.771525,-3.38176876e-15 6.76353751e-15,44.771525 0,100 C-6.76353751e-15,155.228475 44.771525,200 100,200 C155.228475,200 200,155.228475 200,100 C200,73.478351 189.464316,48.0429597 170.710678,29.2893219 C151.95704,10.535684 126.521649,1.62398263e-15 100,0 Z M100,186.666602 C52.1353576,186.666602 13.3333984,147.864642 13.3333984,100 C13.3333984,52.1353576 52.1353576,13.3333984 100,13.3333984 C147.864642,13.3333984 186.666602,52.1353576 186.666602,100 C186.666602,147.864642 147.864642,186.666602 100,186.666602 Z" id="Shape"></path>
                <path d="M146.927492,62.414293 L85.7166635,123.704748 L52.7468097,90.7586322 C51.0691954,89.0669337 48.6176779,88.3999007 46.3157202,89.008798 C44.0137625,89.6176954 42.2110867,91.4100171 41.5867434,93.7106129 C40.9624,96.0112087 41.6112417,98.4705634 43.2888561,100.162262 L80.9877843,137.910231 C83.5856439,140.496088 87.7813375,140.496088 90.3791972,137.910231 L156.318905,71.8847454 C158.219297,70.2547574 159.046947,67.6957673 158.46162,65.2597346 C157.876294,62.823702 155.976764,60.9217008 153.543896,60.3356129 C151.111028,59.749525 148.555362,60.5782513 146.927492,62.4811157 L146.927492,62.414293 Z" id="Shape"></path>
            </g>
        </g>
    </g>
</svg>